<?xml version="1.0" encoding="utf-8"?>
<!-- Generator: Adobe Illustrator 23.0.1, SVG Export Plug-In . SVG Version: 6.00 Build 0)  -->
<svg version="1.1" id="Layer_1" xmlns="http://www.w3.org/2000/svg" xmlns:xlink="http://www.w3.org/1999/xlink" x="0px" y="0px"
	 viewBox="0 0 110 110" style="enable-background:new 0 0 110 110;" xml:space="preserve">
<style type="text/css">
	.st0{fill:#66BD9F;}
</style>
<g>
	<g>
		<path class="st0" d="M105.49,35.02c2.22,3.86,3.51,6.53,3.51,6.53L91.15,59.54c0,0-2.65-1.3-6.48-3.54L105.49,35.02z"/>
		<path class="st0" d="M74.87,4.17c-3.83-2.24-6.48-3.54-6.48-3.54L50.54,18.62c0,0,1.29,2.67,3.51,6.53L74.87,4.17z"/>
		<path class="st0" d="M57.95,26.2c2.92,4.53,6.88,10.07,11.28,14.5s9.9,8.43,14.39,11.37l17.71-17.85
			c-2.92-4.53-6.88-10.07-11.28-14.5c-4.4-4.43-9.9-8.43-14.39-11.37L57.95,26.2z"/>
		<path class="st0" d="M69.33,45.39c-0.88-0.8-1.77-1.59-2.59-2.42c-0.82-0.83-1.6-1.73-2.4-2.61l-5.09,4.93
			c0.83,0.92,1.64,1.86,2.5,2.72c0.86,0.86,1.78,1.68,2.7,2.51L69.33,45.39z"/>
		<path class="st0" d="M62,53.08c-0.93-0.85-1.88-1.68-2.75-2.56c-0.87-0.88-1.7-1.83-2.54-2.77L8.63,94.28
			c1.13,1.29,2.25,2.59,3.43,3.78c1.18,1.19,2.47,2.32,3.75,3.46L62,53.08z"/>
		<path class="st0" d="M1,101.67c1.17,1.35,2.34,2.7,3.57,3.94c1.23,1.24,2.57,2.42,3.9,3.59l4.9-5.12c-1.3-1.15-2.61-2.3-3.81-3.51
			c-1.2-1.21-2.34-2.52-3.48-3.84L1,101.67z"/>
	</g>
</g>
</svg>
