<?xml version="1.0" encoding="utf-8"?>
<!-- Generator: Adobe Illustrator 23.0.1, SVG Export Plug-In . SVG Version: 6.00 Build 0)  -->
<svg version="1.1" id="Layer_1" xmlns="http://www.w3.org/2000/svg" xmlns:xlink="http://www.w3.org/1999/xlink" x="0px" y="0px"
	 viewBox="0 0 344 180" style="enable-background:new 0 0 344 180;" xml:space="preserve">
<style type="text/css">
	.st0{fill:#E8EAEF;}
	.st1{fill:#66BD9F;}
</style>
<g>
	<g>
		<g>
			<rect x="9" y="120.76" class="st0" width="8" height="18.1"/>
			<rect x="22" y="105.68" class="st0" width="8" height="33.18"/>
			<rect x="35" y="110.7" class="st0" width="8" height="28.15"/>
			<rect x="48" y="85.57" class="st0" width="8" height="53.28"/>
			<rect x="61" y="71.49" class="st0" width="8" height="67.36"/>
			<rect x="74" y="91.6" class="st0" width="8" height="47.25"/>
			<rect x="87" y="78.53" class="st0" width="8" height="60.32"/>
			<rect x="100" y="59.43" class="st0" width="8" height="79.42"/>
		</g>
		<g>
			<path class="st1" d="M104.49,34.5c2.22,3.86,3.51,6.53,3.51,6.53L90.15,59.03c0,0-2.65-1.3-6.48-3.54L104.49,34.5z"/>
			<path class="st1" d="M73.87,3.65c-3.83-2.24-6.48-3.54-6.48-3.54L49.54,18.11c0,0,1.29,2.67,3.51,6.53L73.87,3.65z"/>
			<path class="st1" d="M56.95,25.69c2.92,4.53,6.88,10.07,11.28,14.5s9.9,8.43,14.39,11.37l17.71-17.85
				c-2.92-4.53-6.88-10.07-11.28-14.5c-4.4-4.43-9.9-8.43-14.39-11.37L56.95,25.69z"/>
			<path class="st1" d="M68.33,44.87c-0.88-0.8-1.77-1.59-2.59-2.42s-1.6-1.73-2.4-2.61l-5.09,4.93c0.83,0.92,1.64,1.86,2.5,2.72
				c0.86,0.86,1.78,1.68,2.7,2.51L68.33,44.87z"/>
			<path class="st1" d="M61,52.57c-0.93-0.85-1.88-1.68-2.75-2.56c-0.87-0.88-1.7-1.83-2.54-2.77L7.63,93.77
				c1.13,1.29,2.25,2.59,3.43,3.78c1.18,1.19,2.47,2.32,3.75,3.46L61,52.57z"/>
			<path class="st1" d="M0,101.16c1.17,1.35,2.34,2.7,3.57,3.94c1.23,1.24,2.57,2.42,3.9,3.59l4.9-5.12
				c-1.3-1.15-2.61-2.3-3.81-3.51c-1.2-1.21-2.34-2.52-3.48-3.84L0,101.16z"/>
		</g>
	</g>
	<g>
		<path class="st0" d="M148.66,69.48c-2.81,0-5.15-0.27-7.02-0.8c-1.87-0.53-3.37-1.22-4.5-2.06c-1.13-0.84-1.93-1.78-2.41-2.83
			c-0.48-1.04-0.72-2.08-0.72-3.1c0-1.09,0.2-2,0.6-2.73s0.93-1.34,1.59-1.81c0.66-0.47,1.41-0.81,2.26-1.01
			c0.84-0.2,1.73-0.31,2.64-0.31c0,1.8,0.21,3.39,0.64,4.75c0.43,1.36,1.02,2.5,1.77,3.41c0.75,0.91,1.65,1.6,2.7,2.06
			c1.05,0.46,2.19,0.69,3.44,0.69c1.22,0,2.31-0.17,3.27-0.52c0.96-0.35,1.77-0.83,2.44-1.44s1.18-1.34,1.53-2.17
			c0.35-0.83,0.52-1.72,0.52-2.69c0-1.06-0.21-2.01-0.64-2.84c-0.43-0.83-1.07-1.6-1.94-2.3c-0.87-0.71-1.95-1.39-3.27-2.03
			c-1.31-0.65-2.85-1.34-4.6-2.08c-2.18-0.9-4.02-1.83-5.51-2.78c-1.5-0.96-2.7-1.98-3.62-3.09c-0.92-1.11-1.57-2.3-1.97-3.6
			s-0.6-2.7-0.6-4.24c0-1.92,0.39-3.67,1.16-5.22c0.77-1.56,1.84-2.89,3.21-3.99c1.36-1.11,2.98-1.96,4.86-2.55
			c1.87-0.6,3.91-0.89,6.11-0.89c2.3,0,4.28,0.19,5.95,0.57c1.67,0.38,3.05,0.9,4.14,1.55c1.09,0.66,1.9,1.43,2.43,2.32
			c0.53,0.89,0.79,1.85,0.79,2.87c0,0.74-0.16,1.42-0.47,2.06c-0.32,0.63-0.79,1.19-1.44,1.66s-1.45,0.84-2.41,1.11
			c-0.97,0.27-2.09,0.4-3.37,0.4c0-0.88-0.12-1.83-0.35-2.84c-0.23-1.02-0.62-1.96-1.15-2.83c-0.53-0.87-1.22-1.6-2.06-2.17
			c-0.85-0.57-1.87-0.86-3.07-0.86c-0.84,0-1.63,0.12-2.38,0.37c-0.75,0.25-1.41,0.61-1.97,1.11c-0.56,0.49-1,1.1-1.33,1.83
			c-0.33,0.73-0.49,1.56-0.49,2.51c0,0.88,0.14,1.71,0.43,2.49c0.28,0.78,0.81,1.54,1.57,2.29c0.76,0.75,1.81,1.49,3.15,2.24
			c1.33,0.75,3.06,1.55,5.18,2.41c2.14,0.88,3.96,1.78,5.47,2.7c1.51,0.92,2.74,1.91,3.71,2.97c0.97,1.05,1.67,2.21,2.11,3.47
			c0.44,1.26,0.66,2.66,0.66,4.2c0,2.03-0.4,3.89-1.19,5.58c-0.79,1.69-1.93,3.14-3.42,4.35c-1.49,1.21-3.27,2.15-5.36,2.83
			C153.61,69.15,151.26,69.48,148.66,69.48z"/>
		<path class="st0" d="M193.91,61.83c0,0.93,0.08,1.67,0.24,2.21c0.16,0.55,0.39,0.97,0.69,1.27c0.29,0.3,0.64,0.49,1.02,0.59
			c0.39,0.09,0.8,0.14,1.25,0.14h2.63v3.45h-21.59v-3.45h2.63c0.47,0,0.9-0.05,1.28-0.14c0.39-0.1,0.72-0.29,1.01-0.59
			c0.28-0.3,0.51-0.72,0.67-1.27c0.16-0.55,0.24-1.29,0.24-2.21V27.19h-5.01c-0.94,0-1.72,0.11-2.35,0.32
			c-0.63,0.21-1.15,0.51-1.54,0.9c-0.4,0.39-0.69,0.87-0.89,1.44c-0.19,0.57-0.33,1.21-0.41,1.93l-0.43,4.02h-4.21l0.34-12.56h38.96
			l0.31,12.56h-4.18l-0.46-4.02c-0.08-0.72-0.22-1.36-0.41-1.93c-0.19-0.57-0.49-1.05-0.89-1.44c-0.4-0.39-0.91-0.69-1.54-0.9
			c-0.63-0.21-1.42-0.32-2.35-0.32h-5.01V61.83z"/>
		<path class="st0" d="M254.88,46.35c0,3.46-0.46,6.62-1.39,9.46c-0.93,2.85-2.29,5.29-4.09,7.31c-1.8,2.03-4.01,3.6-6.63,4.7
			c-2.62,1.11-5.62,1.66-9.02,1.66c-3.56,0-6.67-0.55-9.33-1.66c-2.66-1.11-4.86-2.67-6.61-4.7c-1.75-2.03-3.06-4.47-3.94-7.33
			c-0.88-2.86-1.31-6.03-1.31-9.51c0-3.48,0.44-6.64,1.31-9.48c0.87-2.84,2.19-5.26,3.95-7.27c1.76-2.01,3.97-3.56,6.63-4.65
			c2.66-1.1,5.78-1.65,9.36-1.65c3.38,0,6.38,0.55,8.99,1.65c2.62,1.1,4.82,2.65,6.61,4.67c1.79,2.02,3.15,4.44,4.08,7.28
			C254.42,39.67,254.88,42.84,254.88,46.35z M223.06,46.35c0,3.01,0.19,5.7,0.58,8.05c0.39,2.35,1.01,4.35,1.86,5.98
			c0.86,1.63,1.96,2.87,3.31,3.73c1.35,0.86,3,1.29,4.93,1.29c1.95,0,3.61-0.43,4.96-1.29c1.35-0.86,2.45-2.1,3.28-3.73
			c0.83-1.63,1.44-3.62,1.82-5.98c0.38-2.35,0.56-5.04,0.56-8.05s-0.19-5.7-0.56-8.05c-0.38-2.35-0.98-4.35-1.82-5.98
			c-0.84-1.63-1.92-2.87-3.27-3.72c-1.34-0.85-2.98-1.27-4.92-1.27c-1.95,0-3.61,0.42-4.98,1.27c-1.36,0.85-2.47,2.09-3.33,3.72
			c-0.86,1.63-1.48,3.62-1.86,5.98C223.25,40.65,223.06,43.33,223.06,46.35z"/>
		<path class="st0" d="M282.9,64.48c1.53,0,2.89-0.18,4.08-0.54c1.19-0.36,2.25-0.82,3.19-1.4c0.94-0.57,1.76-1.22,2.46-1.94
			c0.7-0.72,1.32-1.42,1.85-2.12c0.32,0.25,0.58,0.63,0.78,1.14c0.19,0.51,0.29,1.03,0.29,1.57c0,0.88-0.23,1.81-0.7,2.78
			c-0.47,0.97-1.25,1.87-2.35,2.69c-1.1,0.82-2.56,1.49-4.37,2.03c-1.81,0.53-4.05,0.8-6.72,0.8c-3.62,0-6.79-0.55-9.5-1.66
			c-2.71-1.11-4.96-2.67-6.75-4.7c-1.79-2.03-3.14-4.47-4.03-7.31c-0.9-2.85-1.34-6-1.34-9.46c0-3.4,0.46-6.51,1.37-9.34
			c0.92-2.83,2.27-5.25,4.08-7.28c1.8-2.03,4.05-3.61,6.75-4.73c2.7-1.13,5.82-1.69,9.36-1.69c2.4,0,4.49,0.19,6.28,0.57
			c1.78,0.38,3.26,0.9,4.44,1.55c1.18,0.66,2.07,1.43,2.66,2.32c0.59,0.89,0.89,1.85,0.89,2.87c0,0.78-0.17,1.5-0.5,2.16
			c-0.34,0.67-0.84,1.25-1.5,1.74c-0.66,0.49-1.48,0.88-2.46,1.15c-0.98,0.28-2.1,0.42-3.36,0.42c0-1.04-0.11-2.08-0.34-3.12
			c-0.22-1.03-0.61-1.97-1.15-2.81c-0.54-0.84-1.25-1.52-2.12-2.04c-0.88-0.52-1.97-0.78-3.27-0.78c-1.98,0-3.64,0.42-5.01,1.26
			c-1.36,0.84-2.46,2.07-3.28,3.69c-0.82,1.62-1.42,3.61-1.79,5.98c-0.37,2.37-0.55,5.07-0.55,8.1c0,3.03,0.22,5.68,0.67,7.96
			c0.45,2.27,1.17,4.16,2.17,5.67c1,1.5,2.29,2.63,3.89,3.38C278.62,64.1,280.58,64.48,282.9,64.48z"/>
		<path class="st0" d="M325.25,35c0.67-0.74,1.24-1.41,1.69-2.01c0.46-0.6,0.82-1.16,1.1-1.68c0.27-0.51,0.47-1.01,0.6-1.47
			c0.12-0.46,0.18-0.92,0.18-1.36c0-0.72-0.27-1.21-0.79-1.49c-0.53-0.27-1.44-0.41-2.72-0.41v-3.35h16.95v3.35
			c-0.86,0-1.66,0.14-2.43,0.41s-1.51,0.66-2.24,1.17c-0.73,0.51-1.46,1.11-2.17,1.8c-0.71,0.7-1.44,1.47-2.17,2.31l-8.24,9.39
			l11.63,19.14c0.61,1.01,1.2,1.85,1.76,2.51c0.56,0.67,1.12,1.2,1.69,1.6c0.57,0.4,1.15,0.68,1.74,0.85
			c0.59,0.17,1.23,0.25,1.92,0.25H344v3.45h-3.36c-1.59,0-2.98-0.05-4.18-0.16c-1.2-0.11-2.26-0.26-3.16-0.47
			c-0.91-0.21-1.69-0.48-2.34-0.81c-0.65-0.33-1.22-0.71-1.71-1.16c-0.49-0.44-0.93-0.94-1.33-1.5c-0.4-0.56-0.79-1.18-1.18-1.85
			l-8.43-14.9l-2.78,2.25v10.94c0,0.93,0.09,1.67,0.26,2.21c0.17,0.55,0.4,0.97,0.69,1.27c0.28,0.3,0.63,0.49,1.04,0.59
			c0.41,0.09,0.83,0.14,1.28,0.14h2.63v3.45h-21.59v-3.45h2.63c0.45,0,0.86-0.04,1.25-0.13c0.39-0.08,0.73-0.26,1.02-0.52
			c0.29-0.26,0.52-0.66,0.69-1.17c0.16-0.51,0.24-1.2,0.24-2.04V30.61c0-0.87-0.08-1.56-0.24-2.07c-0.16-0.51-0.39-0.91-0.69-1.18
			c-0.3-0.27-0.64-0.46-1.02-0.55c-0.39-0.1-0.81-0.14-1.25-0.14h-2.63v-3.42h21.59v3.42h-2.63c-0.45,0-0.88,0.05-1.28,0.14
			c-0.41,0.09-0.75,0.29-1.04,0.58c-0.29,0.3-0.51,0.72-0.69,1.27c-0.17,0.55-0.26,1.29-0.26,2.21v15.12L325.25,35z"/>
	</g>
	<g>
		<path class="st1" d="M157.01,133.84c1.52,0,2.87-0.18,4.06-0.54c1.19-0.36,2.24-0.83,3.18-1.4c0.93-0.57,1.75-1.22,2.45-1.94
			c0.7-0.72,1.31-1.43,1.84-2.12c0.32,0.25,0.58,0.63,0.78,1.14c0.19,0.51,0.29,1.03,0.29,1.57c0,0.88-0.23,1.81-0.7,2.79
			c-0.47,0.97-1.25,1.87-2.34,2.69s-2.54,1.5-4.35,2.03c-1.8,0.53-4.03,0.8-6.69,0.8c-3.61,0-6.76-0.55-9.45-1.66
			c-2.7-1.11-4.93-2.68-6.72-4.71c-1.78-2.03-3.12-4.47-4.01-7.32c-0.89-2.85-1.34-6.01-1.34-9.48c0-3.4,0.46-6.52,1.37-9.35
			s2.26-5.26,4.06-7.29s4.03-3.61,6.72-4.74c2.68-1.13,5.79-1.69,9.32-1.69c2.39,0,4.47,0.19,6.25,0.57
			c1.77,0.38,3.25,0.9,4.42,1.56c1.17,0.66,2.06,1.43,2.64,2.32c0.59,0.9,0.88,1.85,0.88,2.88c0,0.78-0.17,1.5-0.5,2.17
			c-0.33,0.67-0.83,1.25-1.49,1.74c-0.66,0.49-1.47,0.88-2.45,1.15c-0.97,0.28-2.09,0.42-3.34,0.42c0-1.05-0.11-2.09-0.33-3.12
			c-0.22-1.03-0.6-1.97-1.14-2.81c-0.54-0.84-1.24-1.52-2.11-2.05c-0.87-0.52-1.96-0.78-3.25-0.78c-1.97,0-3.63,0.42-4.98,1.26
			c-1.36,0.84-2.45,2.07-3.27,3.69c-0.82,1.62-1.41,3.62-1.78,5.98c-0.36,2.37-0.55,5.07-0.55,8.11c0,3.04,0.22,5.69,0.67,7.97
			c0.44,2.28,1.16,4.17,2.16,5.68c0.99,1.5,2.28,2.64,3.88,3.38C152.75,133.46,154.7,133.84,157.01,133.84z"/>
		<path class="st1" d="M214.87,115.72c0,3.46-0.46,6.62-1.38,9.46c-0.92,2.85-2.28,5.29-4.07,7.31c-1.79,2.03-3.99,3.6-6.6,4.7
			c-2.6,1.11-5.6,1.66-8.98,1.66c-3.55,0-6.64-0.55-9.29-1.66s-4.84-2.67-6.58-4.7c-1.74-2.03-3.05-4.47-3.92-7.33
			c-0.87-2.86-1.31-6.03-1.31-9.51s0.44-6.64,1.31-9.48c0.87-2.84,2.18-5.26,3.94-7.27c1.75-2.01,3.95-3.56,6.6-4.65
			c2.64-1.1,5.75-1.65,9.32-1.65c3.36,0,6.35,0.55,8.95,1.65c2.6,1.1,4.8,2.65,6.58,4.67c1.78,2.02,3.13,4.44,4.06,7.28
			C214.41,109.04,214.87,112.21,214.87,115.72z M183.2,115.72c0,3.01,0.19,5.7,0.58,8.05c0.38,2.35,1,4.35,1.85,5.98
			c0.85,1.63,1.95,2.87,3.3,3.73c1.35,0.86,2.98,1.29,4.91,1.29c1.95,0,3.59-0.43,4.94-1.29c1.35-0.86,2.44-2.1,3.27-3.73
			c0.83-1.63,1.43-3.62,1.81-5.98c0.37-2.35,0.56-5.04,0.56-8.05s-0.19-5.7-0.56-8.05c-0.38-2.35-0.98-4.35-1.81-5.98
			c-0.83-1.63-1.91-2.87-3.25-3.72c-1.34-0.85-2.97-1.27-4.89-1.27c-1.95,0-3.6,0.42-4.95,1.27c-1.36,0.85-2.46,2.09-3.31,3.72
			c-0.85,1.63-1.47,3.62-1.85,5.98C183.4,110.02,183.2,112.7,183.2,115.72z"/>
		<path class="st1" d="M260.98,95.98h-2.67c-0.43,0-0.83,0.05-1.22,0.14c-0.39,0.09-0.73,0.28-1.02,0.58
			c-0.29,0.29-0.52,0.71-0.68,1.25c-0.16,0.54-0.24,1.27-0.24,2.18v24.93c0,2.14-0.3,4.07-0.9,5.77c-0.6,1.7-1.53,3.15-2.8,4.34
			c-1.27,1.19-2.88,2.1-4.85,2.73c-1.97,0.64-4.31,0.95-7.02,0.95c-2.72,0-5.14-0.27-7.28-0.79c-2.14-0.53-3.95-1.38-5.43-2.54
			c-1.48-1.17-2.61-2.67-3.39-4.51c-0.78-1.84-1.17-4.07-1.17-6.7V99.88c0-0.85-0.09-1.53-0.26-2.05c-0.17-0.51-0.41-0.9-0.7-1.17
			c-0.29-0.27-0.63-0.45-1-0.54c-0.38-0.1-0.78-0.14-1.2-0.14h-2.67v-3.37h21.46v3.37h-2.61c-0.43,0-0.83,0.05-1.22,0.14
			c-0.39,0.09-0.73,0.28-1.02,0.58c-0.29,0.29-0.52,0.71-0.68,1.25c-0.16,0.54-0.24,1.27-0.24,2.18v24.68
			c0,1.79,0.22,3.29,0.65,4.51c0.44,1.21,1.06,2.19,1.87,2.93c0.81,0.74,1.78,1.27,2.92,1.59c1.13,0.32,2.41,0.49,3.83,0.49
			c1.38,0,2.62-0.18,3.74-0.55c1.11-0.36,2.06-0.93,2.84-1.7c0.78-0.77,1.38-1.75,1.81-2.93c0.43-1.19,0.64-2.59,0.64-4.21V99.88
			c0-0.85-0.08-1.53-0.24-2.05c-0.16-0.51-0.39-0.9-0.68-1.17c-0.29-0.27-0.63-0.45-1.02-0.54c-0.39-0.1-0.79-0.14-1.22-0.14h-2.61
			v-3.37h16.29V95.98z"/>
		<path class="st1" d="M263.71,135.41h2.61c0.43,0,0.83-0.04,1.22-0.13c0.38-0.08,0.72-0.26,1.02-0.52c0.29-0.26,0.53-0.66,0.7-1.17
			c0.17-0.51,0.26-1.2,0.26-2.04V99.98c0-0.87-0.09-1.56-0.26-2.07c-0.17-0.51-0.41-0.91-0.7-1.18c-0.29-0.27-0.63-0.46-1.02-0.55
			c-0.39-0.1-0.79-0.14-1.22-0.14h-2.61v-3.42h20.06c5.88,0,10.19,1.02,12.93,3.07c2.75,2.04,4.12,5.02,4.12,8.92
			c0,1.71-0.24,3.23-0.73,4.56s-1.13,2.49-1.93,3.48c-0.8,0.99-1.71,1.83-2.72,2.52c-1.01,0.68-2.05,1.25-3.1,1.69l7.42,13.29
			c0.53,0.93,1.04,1.73,1.53,2.39c0.5,0.67,0.99,1.21,1.49,1.64c0.5,0.43,1.01,0.75,1.53,0.95c0.53,0.2,1.08,0.3,1.67,0.3h0.24v3.45
			h-2.04c-1.87,0-3.49-0.07-4.88-0.22c-1.39-0.15-2.6-0.44-3.65-0.87c-1.04-0.43-1.95-1.03-2.7-1.79s-1.46-1.74-2.11-2.94
			l-7.39-14.27h-4.13v12.78c0,0.84,0.09,1.52,0.26,2.04c0.17,0.52,0.4,0.91,0.7,1.17c0.29,0.26,0.63,0.44,1.02,0.52
			c0.38,0.08,0.79,0.13,1.22,0.13h2.67v3.45h-21.49V135.41z M279.33,115h3.5c1.44,0,2.64-0.2,3.6-0.6c0.96-0.4,1.73-1,2.31-1.79
			c0.58-0.79,0.99-1.78,1.25-2.97c0.25-1.19,0.38-2.58,0.38-4.16c0-1.64-0.14-3.04-0.43-4.18c-0.28-1.14-0.73-2.07-1.34-2.8
			c-0.61-0.73-1.4-1.26-2.37-1.58c-0.97-0.33-2.15-0.49-3.53-0.49h-3.37V115z"/>
		<path class="st1" d="M329.23,131.2c0,0.93,0.08,1.67,0.24,2.21c0.16,0.55,0.39,0.97,0.68,1.27c0.29,0.3,0.63,0.49,1.02,0.59
			c0.38,0.09,0.8,0.14,1.25,0.14h2.61v3.45h-21.49v-3.45h2.61c0.47,0,0.89-0.05,1.28-0.14c0.38-0.1,0.72-0.29,1-0.59
			c0.28-0.3,0.51-0.72,0.67-1.27c0.16-0.55,0.24-1.29,0.24-2.21V96.56h-4.98c-0.93,0-1.71,0.11-2.34,0.32
			c-0.63,0.21-1.14,0.51-1.53,0.9c-0.4,0.39-0.69,0.87-0.88,1.44c-0.19,0.57-0.33,1.21-0.41,1.93l-0.43,4.02h-4.19l0.33-12.56h38.78
			l0.3,12.56h-4.16l-0.46-4.02c-0.08-0.72-0.22-1.36-0.41-1.93c-0.19-0.57-0.49-1.05-0.88-1.44c-0.4-0.39-0.91-0.69-1.53-0.9
			c-0.63-0.21-1.41-0.32-2.34-0.32h-4.98V131.2z"/>
	</g>
	<g>
		<path class="st0" d="M13.01,179.65v-1.3h1.15c0.2,0,0.38-0.01,0.56-0.04c0.17-0.02,0.32-0.08,0.45-0.18
			c0.13-0.1,0.23-0.25,0.3-0.45c0.08-0.2,0.11-0.47,0.11-0.81v-3.4l-4.53-8.67c-0.12-0.24-0.23-0.44-0.34-0.61
			c-0.11-0.17-0.22-0.3-0.35-0.4c-0.13-0.1-0.27-0.17-0.44-0.22c-0.16-0.05-0.36-0.07-0.6-0.07H9v-1.29h8.19v1.29h-0.42
			c-0.49,0-0.86,0.1-1.1,0.3c-0.24,0.2-0.37,0.46-0.37,0.8c0,0.21,0.04,0.43,0.11,0.67c0.07,0.24,0.16,0.47,0.26,0.67l1.82,3.59
			c0.25,0.52,0.46,0.97,0.63,1.37c0.16,0.4,0.31,0.79,0.45,1.17c0.17-0.43,0.36-0.9,0.58-1.4c0.22-0.5,0.46-1.03,0.74-1.58
			l1.42-2.92c0.18-0.36,0.29-0.66,0.34-0.9c0.05-0.24,0.08-0.43,0.08-0.57c0-0.42-0.13-0.73-0.4-0.92
			c-0.27-0.19-0.67-0.29-1.21-0.29h-0.56v-1.29h6.4v1.29h-0.47c-0.21,0-0.39,0.03-0.53,0.08c-0.15,0.05-0.29,0.15-0.42,0.3
			c-0.13,0.14-0.27,0.34-0.41,0.58c-0.14,0.25-0.3,0.56-0.5,0.94l-4.16,8.08v3.34c0,0.36,0.04,0.64,0.11,0.84
			c0.07,0.2,0.17,0.35,0.29,0.45c0.12,0.1,0.27,0.17,0.43,0.19c0.16,0.02,0.34,0.04,0.53,0.04h1.21v1.3H13.01z"/>
		<path class="st0" d="M43.13,170.91c0,1.34-0.18,2.57-0.54,3.67c-0.36,1.11-0.9,2.05-1.6,2.84c-0.71,0.79-1.57,1.39-2.59,1.82
			c-1.02,0.43-2.2,0.64-3.53,0.64c-1.39,0-2.61-0.21-3.65-0.64c-1.04-0.43-1.9-1.04-2.59-1.82c-0.68-0.79-1.2-1.73-1.54-2.84
			c-0.34-1.11-0.51-2.34-0.51-3.69c0-1.35,0.17-2.58,0.51-3.68c0.34-1.1,0.86-2.04,1.55-2.82c0.69-0.78,1.55-1.38,2.59-1.81
			c1.04-0.43,2.26-0.64,3.66-0.64c1.32,0,2.49,0.21,3.52,0.64c1.02,0.42,1.89,1.03,2.59,1.81c0.7,0.78,1.23,1.73,1.59,2.83
			C42.95,168.32,43.13,169.55,43.13,170.91z M30.68,170.91c0,1.17,0.08,2.21,0.23,3.12c0.15,0.91,0.39,1.69,0.73,2.32
			c0.33,0.63,0.77,1.12,1.3,1.45c0.53,0.33,1.17,0.5,1.93,0.5c0.76,0,1.41-0.17,1.94-0.5c0.53-0.33,0.96-0.82,1.28-1.45
			c0.33-0.63,0.56-1.4,0.71-2.32c0.15-0.91,0.22-1.96,0.22-3.12s-0.07-2.21-0.22-3.13c-0.15-0.91-0.39-1.69-0.71-2.32
			c-0.33-0.63-0.75-1.11-1.28-1.44c-0.53-0.33-1.17-0.49-1.92-0.49c-0.77,0-1.41,0.16-1.95,0.49c-0.53,0.33-0.97,0.81-1.3,1.44
			c-0.34,0.63-0.58,1.4-0.73,2.32C30.76,168.7,30.68,169.74,30.68,170.91z"/>
		<path class="st0" d="M61.54,163.5h-1.05c-0.17,0-0.33,0.02-0.48,0.05s-0.29,0.11-0.4,0.22c-0.12,0.11-0.21,0.27-0.27,0.48
			c-0.06,0.21-0.1,0.48-0.1,0.83v9.53c0,0.82-0.12,1.55-0.35,2.21c-0.24,0.65-0.6,1.2-1.1,1.66c-0.5,0.45-1.13,0.8-1.91,1.04
			s-1.69,0.36-2.76,0.36c-1.07,0-2.02-0.1-2.86-0.3c-0.84-0.2-1.55-0.53-2.13-0.97c-0.58-0.44-1.03-1.02-1.33-1.72
			c-0.31-0.7-0.46-1.56-0.46-2.56v-9.34c0-0.33-0.03-0.59-0.1-0.78c-0.07-0.19-0.16-0.34-0.27-0.45c-0.12-0.1-0.25-0.17-0.39-0.21
			c-0.15-0.04-0.31-0.05-0.47-0.05h-1.05v-1.29h8.43v1.29h-1.03c-0.17,0-0.33,0.02-0.48,0.05c-0.15,0.04-0.29,0.11-0.4,0.22
			c-0.12,0.11-0.21,0.27-0.27,0.48c-0.06,0.21-0.1,0.48-0.1,0.83v9.43c0,0.68,0.09,1.26,0.26,1.72c0.17,0.47,0.42,0.84,0.73,1.12
			c0.32,0.28,0.7,0.49,1.15,0.61c0.45,0.12,0.95,0.18,1.51,0.18c0.54,0,1.03-0.07,1.47-0.21c0.44-0.14,0.81-0.36,1.12-0.65
			c0.31-0.29,0.54-0.67,0.71-1.12c0.17-0.45,0.25-0.99,0.25-1.61v-9.58c0-0.33-0.03-0.59-0.1-0.78c-0.06-0.19-0.15-0.34-0.27-0.45
			c-0.12-0.1-0.25-0.17-0.4-0.21c-0.15-0.04-0.31-0.05-0.48-0.05h-1.03v-1.29h6.4V163.5z"/>
		<path class="st0" d="M63.43,178.35h1.03c0.17,0,0.33-0.02,0.48-0.05c0.15-0.03,0.28-0.1,0.4-0.2c0.12-0.1,0.21-0.25,0.27-0.44
			c0.07-0.19,0.1-0.45,0.1-0.77v-11.9c0-0.33-0.03-0.59-0.1-0.78c-0.07-0.19-0.16-0.34-0.27-0.45s-0.25-0.17-0.4-0.21
			c-0.15-0.04-0.31-0.05-0.48-0.05h-1.03v-1.29h7.88c2.31,0,4,0.39,5.08,1.16c1.08,0.77,1.62,1.89,1.62,3.36
			c0,0.64-0.1,1.22-0.29,1.72c-0.19,0.5-0.44,0.94-0.76,1.31c-0.31,0.37-0.67,0.69-1.07,0.95c-0.4,0.26-0.8,0.47-1.22,0.64
			l2.91,5.01c0.21,0.35,0.41,0.65,0.6,0.9c0.19,0.25,0.39,0.46,0.58,0.62c0.19,0.16,0.4,0.28,0.6,0.36
			c0.21,0.08,0.43,0.11,0.66,0.11h0.1v1.3h-0.8c-0.73,0-1.37-0.03-1.92-0.08c-0.55-0.05-1.02-0.16-1.43-0.33
			c-0.41-0.16-0.76-0.39-1.06-0.67c-0.3-0.29-0.58-0.66-0.83-1.11l-2.9-5.38h-1.62v4.82c0,0.32,0.03,0.57,0.1,0.77
			c0.07,0.19,0.16,0.34,0.27,0.44c0.12,0.1,0.25,0.16,0.4,0.2c0.15,0.03,0.31,0.05,0.48,0.05h1.05v1.3h-8.45V178.35z M69.57,170.66
			h1.37c0.57,0,1.04-0.07,1.42-0.23c0.38-0.15,0.68-0.38,0.91-0.67c0.23-0.3,0.39-0.67,0.49-1.12c0.1-0.45,0.15-0.97,0.15-1.57
			c0-0.62-0.06-1.14-0.17-1.57c-0.11-0.43-0.29-0.78-0.53-1.06c-0.24-0.27-0.55-0.47-0.93-0.6c-0.38-0.12-0.84-0.18-1.39-0.18h-1.33
			V170.66z"/>
		<path class="st0" d="M101.18,162.38l3.38,9.32c0.14,0.38,0.28,0.77,0.4,1.16c0.12,0.39,0.24,0.77,0.34,1.13
			c0.1,0.36,0.19,0.69,0.28,0.99c0.08,0.3,0.14,0.56,0.18,0.78c0.06-0.29,0.13-0.62,0.2-0.98c0.07-0.36,0.15-0.73,0.23-1.13
			c0.08-0.39,0.17-0.8,0.26-1.21c0.09-0.41,0.19-0.82,0.28-1.2l1.29-5.27c0.02-0.1,0.05-0.21,0.08-0.33
			c0.03-0.13,0.05-0.25,0.08-0.37c0.02-0.12,0.04-0.24,0.05-0.35c0.01-0.11,0.02-0.19,0.02-0.26c0-0.42-0.13-0.72-0.38-0.89
			s-0.65-0.26-1.19-0.26h-0.56v-1.29h6.38v1.29h-0.47c-0.24,0-0.45,0.02-0.63,0.07c-0.18,0.05-0.35,0.14-0.49,0.28
			c-0.14,0.14-0.27,0.33-0.39,0.58c-0.12,0.25-0.23,0.57-0.34,0.98l-3.8,14.24h-2.78l-4.11-11.46l-3.52,11.46h-3.03l-4.48-14.85
			c-0.07-0.25-0.16-0.47-0.26-0.63c-0.1-0.17-0.23-0.3-0.37-0.4c-0.14-0.1-0.3-0.17-0.48-0.21c-0.18-0.04-0.39-0.06-0.63-0.06H86.4
			v-1.29h8.17v1.29h-0.56c-0.49,0-0.86,0.09-1.11,0.29c-0.24,0.19-0.36,0.49-0.36,0.89c0,0.14,0.02,0.33,0.08,0.59
			s0.11,0.5,0.17,0.72l1.64,5.64c0.09,0.31,0.18,0.65,0.28,1.01c0.1,0.36,0.19,0.73,0.28,1.1c0.09,0.37,0.17,0.73,0.24,1.07
			c0.07,0.34,0.12,0.64,0.16,0.91c0.11-0.52,0.23-1.02,0.36-1.47c0.13-0.46,0.27-0.92,0.41-1.4l3.23-10.46H101.18z"/>
		<path class="st0" d="M129.92,170.91c0,1.34-0.18,2.57-0.54,3.67c-0.36,1.11-0.9,2.05-1.6,2.84c-0.71,0.79-1.57,1.39-2.59,1.82
			c-1.02,0.43-2.2,0.64-3.53,0.64c-1.39,0-2.61-0.21-3.65-0.64c-1.04-0.43-1.9-1.04-2.59-1.82c-0.68-0.79-1.2-1.73-1.54-2.84
			c-0.34-1.11-0.51-2.34-0.51-3.69c0-1.35,0.17-2.58,0.51-3.68c0.34-1.1,0.86-2.04,1.55-2.82c0.69-0.78,1.55-1.38,2.59-1.81
			c1.04-0.43,2.26-0.64,3.66-0.64c1.32,0,2.49,0.21,3.52,0.64c1.02,0.42,1.89,1.03,2.59,1.81c0.7,0.78,1.23,1.73,1.59,2.83
			C129.74,168.32,129.92,169.55,129.92,170.91z M117.47,170.91c0,1.17,0.08,2.21,0.23,3.12c0.15,0.91,0.39,1.69,0.73,2.32
			c0.33,0.63,0.77,1.12,1.3,1.45c0.53,0.33,1.17,0.5,1.93,0.5c0.76,0,1.41-0.17,1.94-0.5c0.53-0.33,0.96-0.82,1.28-1.45
			c0.33-0.63,0.56-1.4,0.71-2.32c0.15-0.91,0.22-1.96,0.22-3.12s-0.07-2.21-0.22-3.13c-0.15-0.91-0.39-1.69-0.71-2.32
			c-0.33-0.63-0.75-1.11-1.28-1.44c-0.53-0.33-1.17-0.49-1.92-0.49c-0.77,0-1.41,0.16-1.95,0.49c-0.53,0.33-0.97,0.81-1.3,1.44
			c-0.34,0.63-0.58,1.4-0.73,2.32C117.55,168.7,117.47,169.74,117.47,170.91z"/>
		<path class="st0" d="M130.95,178.35h1.03c0.17,0,0.33-0.02,0.48-0.05c0.15-0.03,0.28-0.1,0.4-0.2c0.12-0.1,0.21-0.25,0.27-0.44
			c0.07-0.19,0.1-0.45,0.1-0.77v-11.9c0-0.33-0.03-0.59-0.1-0.78c-0.07-0.19-0.16-0.34-0.27-0.45c-0.12-0.1-0.25-0.17-0.4-0.21
			s-0.31-0.05-0.48-0.05h-1.03v-1.29h7.88c2.31,0,4,0.39,5.08,1.16c1.08,0.77,1.62,1.89,1.62,3.36c0,0.64-0.1,1.22-0.29,1.72
			c-0.19,0.5-0.44,0.94-0.76,1.31c-0.31,0.37-0.67,0.69-1.07,0.95c-0.4,0.26-0.8,0.47-1.22,0.64l2.91,5.01
			c0.21,0.35,0.41,0.65,0.6,0.9c0.19,0.25,0.39,0.46,0.58,0.62c0.19,0.16,0.4,0.28,0.6,0.36c0.21,0.08,0.43,0.11,0.66,0.11h0.1v1.3
			h-0.8c-0.73,0-1.37-0.03-1.92-0.08c-0.55-0.05-1.02-0.16-1.43-0.33c-0.41-0.16-0.76-0.39-1.06-0.67c-0.3-0.29-0.58-0.66-0.83-1.11
			l-2.9-5.38h-1.62v4.82c0,0.32,0.03,0.57,0.1,0.77c0.07,0.19,0.16,0.34,0.27,0.44c0.12,0.1,0.25,0.16,0.4,0.2
			c0.15,0.03,0.31,0.05,0.48,0.05h1.05v1.3h-8.45V178.35z M137.09,170.66h1.37c0.57,0,1.04-0.07,1.42-0.23
			c0.38-0.15,0.68-0.38,0.91-0.67c0.23-0.3,0.39-0.67,0.49-1.12c0.1-0.45,0.15-0.97,0.15-1.57c0-0.62-0.06-1.14-0.17-1.57
			c-0.11-0.43-0.29-0.78-0.53-1.06c-0.24-0.27-0.55-0.47-0.93-0.6c-0.38-0.12-0.84-0.18-1.39-0.18h-1.33V170.66z"/>
		<path class="st0" d="M149.25,179.65v-1.3h1.03c0.18,0,0.35-0.02,0.5-0.05s0.28-0.11,0.39-0.22c0.11-0.11,0.2-0.27,0.26-0.48
			c0.06-0.21,0.1-0.48,0.1-0.83v-11.67c0-0.35-0.03-0.63-0.1-0.83c-0.06-0.21-0.15-0.37-0.26-0.48c-0.11-0.11-0.24-0.18-0.39-0.22
			s-0.32-0.05-0.5-0.05h-1.03v-1.29h8.45v1.29h-1.03c-0.17,0-0.33,0.02-0.48,0.05c-0.16,0.04-0.29,0.1-0.4,0.21
			c-0.11,0.1-0.2,0.25-0.27,0.45c-0.07,0.19-0.1,0.46-0.1,0.78v13.16h4.55c0.57,0,1.02-0.18,1.34-0.54
			c0.32-0.36,0.55-0.89,0.69-1.58l0.39-1.84h1.37l-0.18,5.45H149.25z"/>
		<path class="st0" d="M181.98,170.61c0,1.33-0.18,2.56-0.55,3.67c-0.36,1.11-0.91,2.06-1.64,2.86c-0.73,0.8-1.63,1.41-2.71,1.85
			c-1.08,0.44-2.33,0.66-3.76,0.66h-8.08v-1.3h1.03c0.18,0,0.35-0.02,0.5-0.05s0.28-0.11,0.39-0.22c0.11-0.11,0.2-0.27,0.26-0.48
			c0.06-0.21,0.1-0.48,0.1-0.83v-11.77c0-0.33-0.03-0.59-0.1-0.78c-0.06-0.19-0.15-0.34-0.27-0.45s-0.25-0.17-0.4-0.21
			c-0.15-0.04-0.32-0.05-0.49-0.05h-1.03v-1.29h8.08c1.35,0,2.57,0.18,3.64,0.53c1.07,0.35,1.98,0.88,2.72,1.59
			c0.75,0.7,1.32,1.58,1.71,2.63C181.78,168.01,181.98,169.23,181.98,170.61z M177.84,170.61c0-2.33-0.43-4.06-1.28-5.2
			c-0.86-1.14-2.12-1.71-3.78-1.71h-1.4v14.43h1.37c0.84,0,1.57-0.17,2.21-0.52s1.17-0.85,1.59-1.5c0.42-0.65,0.75-1.44,0.96-2.37
			C177.73,172.83,177.84,171.78,177.84,170.61z"/>
		<path class="st0" d="M207.59,170.91c0,1.34-0.18,2.57-0.54,3.67c-0.36,1.11-0.9,2.05-1.6,2.84c-0.7,0.79-1.57,1.39-2.59,1.82
			c-1.02,0.43-2.2,0.64-3.53,0.64c-1.39,0-2.61-0.21-3.65-0.64c-1.04-0.43-1.9-1.04-2.59-1.82c-0.69-0.79-1.2-1.73-1.54-2.84
			c-0.34-1.11-0.51-2.34-0.51-3.69c0-1.35,0.17-2.58,0.51-3.68c0.34-1.1,0.86-2.04,1.55-2.82c0.69-0.78,1.55-1.38,2.59-1.81
			c1.04-0.43,2.26-0.64,3.66-0.64c1.32,0,2.5,0.21,3.52,0.64c1.02,0.42,1.89,1.03,2.59,1.81c0.7,0.78,1.23,1.73,1.59,2.83
			S207.59,169.55,207.59,170.91z M195.14,170.91c0,1.17,0.07,2.21,0.23,3.12c0.15,0.91,0.39,1.69,0.73,2.32
			c0.34,0.63,0.77,1.12,1.3,1.45c0.53,0.33,1.17,0.5,1.93,0.5c0.77,0,1.41-0.17,1.94-0.5c0.53-0.33,0.96-0.82,1.28-1.45
			c0.33-0.63,0.56-1.4,0.71-2.32c0.15-0.91,0.22-1.96,0.22-3.12s-0.07-2.21-0.22-3.13c-0.15-0.91-0.38-1.69-0.71-2.32
			c-0.33-0.63-0.75-1.11-1.28-1.44c-0.53-0.33-1.17-0.49-1.93-0.49c-0.76,0-1.41,0.16-1.94,0.49c-0.53,0.33-0.97,0.81-1.3,1.44
			c-0.33,0.63-0.58,1.4-0.73,2.32C195.22,168.7,195.14,169.74,195.14,170.91z"/>
		<path class="st0" d="M221.59,166.71l-0.12-1.18c-0.08-0.64-0.28-1.11-0.59-1.39c-0.32-0.29-0.72-0.43-1.22-0.43h-3.89v6.67h5.8
			v1.44h-5.8v4.95c0,0.35,0.03,0.63,0.1,0.83c0.07,0.21,0.16,0.37,0.27,0.48c0.11,0.11,0.25,0.18,0.4,0.22
			c0.16,0.04,0.33,0.05,0.5,0.05h1.52v1.3h-8.93v-1.3h1.03c0.17,0,0.34-0.02,0.49-0.05c0.15-0.03,0.28-0.1,0.4-0.2
			c0.11-0.1,0.2-0.25,0.27-0.44c0.06-0.19,0.1-0.45,0.1-0.77v-11.9c0-0.33-0.03-0.59-0.1-0.78c-0.06-0.19-0.15-0.34-0.27-0.45
			c-0.12-0.1-0.25-0.17-0.4-0.21s-0.32-0.05-0.49-0.05h-1.03v-1.29h13.56l0.12,4.5H221.59z"/>
		<path class="st0" d="M243.14,166.71l-0.12-1.18c-0.08-0.64-0.28-1.11-0.59-1.39c-0.32-0.29-0.72-0.43-1.22-0.43h-3.89v6.67h5.8
			v1.44h-5.8v4.95c0,0.35,0.03,0.63,0.1,0.83c0.07,0.21,0.16,0.37,0.27,0.48c0.11,0.11,0.25,0.18,0.4,0.22
			c0.16,0.04,0.33,0.05,0.5,0.05h1.52v1.3h-8.93v-1.3h1.03c0.17,0,0.34-0.02,0.49-0.05c0.15-0.03,0.28-0.1,0.4-0.2
			c0.11-0.1,0.2-0.25,0.27-0.44c0.06-0.19,0.1-0.45,0.1-0.77v-11.9c0-0.33-0.03-0.59-0.1-0.78c-0.06-0.19-0.15-0.34-0.27-0.45
			c-0.12-0.1-0.25-0.17-0.4-0.21s-0.32-0.05-0.49-0.05h-1.03v-1.29h13.56l0.12,4.5H243.14z"/>
		<path class="st0" d="M246.78,179.65v-1.3h1.03c0.18,0,0.35-0.02,0.5-0.05s0.28-0.11,0.39-0.22c0.11-0.11,0.2-0.27,0.26-0.48
			c0.06-0.21,0.1-0.48,0.1-0.83V165.1c0-0.35-0.03-0.63-0.1-0.84c-0.06-0.21-0.15-0.37-0.26-0.48c-0.11-0.11-0.24-0.18-0.39-0.22
			c-0.15-0.03-0.32-0.05-0.5-0.05h-1.03v-1.3h8.45v1.3h-1.03c-0.17,0-0.34,0.02-0.49,0.05c-0.16,0.04-0.29,0.11-0.4,0.22
			c-0.11,0.11-0.2,0.27-0.26,0.48c-0.06,0.21-0.09,0.49-0.09,0.84v11.66c0,0.35,0.03,0.63,0.09,0.83c0.06,0.21,0.15,0.37,0.26,0.48
			c0.11,0.11,0.24,0.18,0.4,0.22c0.15,0.04,0.32,0.05,0.49,0.05h1.03v1.3H246.78z"/>
		<path class="st0" d="M270.82,179.65l-9.55-13.45v10.57c0,0.35,0.03,0.63,0.1,0.83c0.07,0.21,0.16,0.37,0.27,0.48
			c0.11,0.11,0.25,0.18,0.4,0.22c0.15,0.04,0.32,0.05,0.48,0.05h1.03v1.3h-6.39v-1.3h1.03c0.17,0,0.34-0.02,0.49-0.05
			s0.28-0.11,0.4-0.22c0.11-0.11,0.2-0.27,0.27-0.48c0.06-0.21,0.1-0.48,0.1-0.83v-11.77c0-0.33-0.03-0.59-0.1-0.78
			c-0.07-0.19-0.16-0.34-0.28-0.45c-0.11-0.1-0.25-0.17-0.4-0.21s-0.31-0.05-0.48-0.05h-1.03v-1.29h5.43l8.64,12.19v-9.41
			c0-0.33-0.03-0.59-0.1-0.78c-0.07-0.19-0.16-0.34-0.27-0.45c-0.12-0.1-0.25-0.17-0.4-0.21s-0.31-0.05-0.48-0.05h-1.03v-1.29h6.39
			v1.29h-1.03c-0.17,0-0.33,0.02-0.48,0.05s-0.28,0.11-0.4,0.22c-0.11,0.11-0.2,0.27-0.27,0.48c-0.06,0.21-0.09,0.48-0.09,0.83
			v14.56H270.82z"/>
		<path class="st0" d="M280.09,173.91l-0.71,2.1c-0.06,0.2-0.13,0.43-0.2,0.7c-0.07,0.27-0.1,0.5-0.1,0.7c0,0.16,0.03,0.3,0.09,0.42
			c0.06,0.12,0.15,0.22,0.25,0.29c0.1,0.07,0.22,0.13,0.35,0.17c0.13,0.04,0.27,0.06,0.41,0.06h1.03v1.3h-6.37v-1.3h0.3
			c0.21,0,0.41-0.02,0.59-0.07c0.18-0.05,0.35-0.14,0.5-0.27c0.15-0.13,0.3-0.31,0.44-0.54c0.14-0.23,0.28-0.53,0.42-0.89
			l5.31-14.36h3.36l5.11,14.38c0.12,0.34,0.25,0.63,0.38,0.85c0.13,0.23,0.27,0.41,0.43,0.54c0.15,0.13,0.32,0.22,0.49,0.28
			c0.18,0.06,0.36,0.08,0.55,0.08h0.44v1.3h-8.07v-1.3h0.95c0.12,0,0.24-0.02,0.37-0.05c0.13-0.04,0.24-0.09,0.34-0.17
			c0.1-0.07,0.18-0.17,0.25-0.29c0.06-0.12,0.09-0.26,0.09-0.43c0-0.2-0.02-0.39-0.07-0.57c-0.05-0.18-0.1-0.34-0.14-0.48
			l-0.86-2.44H280.09z M284.26,168.42c-0.09-0.28-0.18-0.57-0.27-0.88c-0.09-0.31-0.18-0.62-0.28-0.94
			c-0.09-0.32-0.18-0.63-0.26-0.95c-0.08-0.31-0.16-0.61-0.22-0.9c-0.07,0.25-0.16,0.52-0.25,0.81c-0.1,0.29-0.2,0.6-0.31,0.91
			s-0.22,0.62-0.32,0.93s-0.21,0.61-0.31,0.89l-1.44,4.13h4.94L284.26,168.42z"/>
		<path class="st0" d="M308.52,179.65l-9.55-13.45v10.57c0,0.35,0.03,0.63,0.1,0.83c0.07,0.21,0.16,0.37,0.27,0.48
			c0.11,0.11,0.25,0.18,0.4,0.22c0.15,0.04,0.32,0.05,0.48,0.05h1.03v1.3h-6.39v-1.3h1.03c0.17,0,0.34-0.02,0.49-0.05
			s0.28-0.11,0.4-0.22c0.11-0.11,0.2-0.27,0.27-0.48c0.06-0.21,0.1-0.48,0.1-0.83v-11.77c0-0.33-0.03-0.59-0.1-0.78
			c-0.07-0.19-0.16-0.34-0.28-0.45c-0.11-0.1-0.25-0.17-0.4-0.21s-0.31-0.05-0.48-0.05h-1.03v-1.29h5.43l8.64,12.19v-9.41
			c0-0.33-0.03-0.59-0.1-0.78c-0.07-0.19-0.16-0.34-0.27-0.45c-0.12-0.1-0.25-0.17-0.4-0.21s-0.31-0.05-0.48-0.05h-1.03v-1.29h6.39
			v1.29h-1.03c-0.17,0-0.33,0.02-0.48,0.05s-0.28,0.11-0.4,0.22c-0.11,0.11-0.2,0.27-0.27,0.48c-0.06,0.21-0.09,0.48-0.09,0.83
			v14.56H308.52z"/>
		<path class="st0" d="M322.86,177.94c0.6,0,1.13-0.07,1.59-0.21c0.46-0.14,0.88-0.32,1.25-0.54c0.37-0.22,0.69-0.47,0.96-0.75
			c0.28-0.28,0.52-0.55,0.72-0.82c0.13,0.09,0.23,0.24,0.31,0.44c0.07,0.2,0.11,0.4,0.11,0.61c0,0.34-0.09,0.7-0.28,1.08
			c-0.18,0.38-0.49,0.73-0.92,1.04c-0.43,0.32-1,0.58-1.71,0.79c-0.71,0.21-1.58,0.31-2.63,0.31c-1.42,0-2.66-0.21-3.71-0.64
			c-1.06-0.43-1.94-1.04-2.64-1.82c-0.7-0.79-1.23-1.73-1.58-2.84c-0.35-1.11-0.53-2.33-0.53-3.67c0-1.32,0.18-2.53,0.54-3.63
			c0.36-1.1,0.89-2.04,1.59-2.83c0.71-0.79,1.58-1.4,2.64-1.84c1.05-0.44,2.28-0.66,3.66-0.66c0.94,0,1.76,0.07,2.45,0.22
			c0.7,0.15,1.27,0.35,1.74,0.6c0.46,0.25,0.81,0.55,1.04,0.9c0.23,0.35,0.35,0.72,0.35,1.12c0,0.3-0.06,0.58-0.2,0.84
			c-0.13,0.26-0.33,0.48-0.59,0.67s-0.58,0.34-0.96,0.45c-0.38,0.11-0.82,0.16-1.31,0.16c0-0.41-0.04-0.81-0.13-1.21
			c-0.09-0.4-0.24-0.76-0.45-1.09c-0.21-0.33-0.49-0.59-0.83-0.79c-0.34-0.2-0.77-0.3-1.28-0.3c-0.77,0-1.43,0.16-1.96,0.49
			c-0.53,0.33-0.96,0.8-1.28,1.43c-0.32,0.63-0.56,1.4-0.7,2.32c-0.14,0.92-0.21,1.97-0.21,3.14c0,1.18,0.09,2.21,0.26,3.09
			c0.18,0.88,0.46,1.62,0.85,2.2s0.9,1.02,1.52,1.31C321.18,177.8,321.95,177.94,322.86,177.94z"/>
		<path class="st0" d="M335.65,178.16h4.9c0.25,0,0.46-0.04,0.63-0.14c0.18-0.09,0.33-0.22,0.45-0.39c0.13-0.17,0.23-0.36,0.3-0.59
			c0.08-0.23,0.13-0.47,0.17-0.75l0.19-1.14h1.7l-0.18,4.5h-14.33v-1.3h1.03c0.17,0,0.34-0.02,0.49-0.05c0.15-0.03,0.28-0.1,0.4-0.2
			c0.11-0.1,0.2-0.25,0.27-0.44c0.06-0.19,0.1-0.45,0.1-0.77v-11.81c0-0.35-0.03-0.63-0.1-0.83c-0.06-0.21-0.15-0.37-0.26-0.48
			c-0.11-0.11-0.24-0.18-0.39-0.22s-0.32-0.05-0.5-0.05h-1.03v-1.29h13.58l0.09,4.5h-1.71l-0.12-1.16c-0.06-0.6-0.22-1.05-0.45-1.37
			c-0.24-0.32-0.61-0.48-1.11-0.48h-4.12v6.11h5.8v1.47h-5.8V178.16z"/>
	</g>
</g>
</svg>
