<?xml version="1.0" encoding="utf-8"?>
<!-- Generator: Adobe Illustrator 23.0.1, SVG Export Plug-In . SVG Version: 6.00 Build 0)  -->
<svg version="1.1" id="Layer_1" xmlns="http://www.w3.org/2000/svg" xmlns:xlink="http://www.w3.org/1999/xlink" x="0px" y="0px"
	 viewBox="0 0 345 141" style="enable-background:new 0 0 345 141;" xml:space="preserve">
<style type="text/css">
	.st0{fill:#E8EAEF;}
	.st1{fill:#66BD9F;}
</style>
<g>
	<g>
		<g>
			<rect x="9.88" y="121.27" class="st0" width="8" height="18.1"/>
			<rect x="22.88" y="106.19" class="st0" width="8" height="33.18"/>
			<rect x="35.88" y="111.22" class="st0" width="8" height="28.15"/>
			<rect x="48.88" y="86.09" class="st0" width="8" height="53.28"/>
			<rect x="61.88" y="72.01" class="st0" width="8" height="67.36"/>
			<rect x="74.88" y="92.12" class="st0" width="8" height="47.25"/>
			<rect x="87.88" y="79.05" class="st0" width="8" height="60.32"/>
			<rect x="100.88" y="59.95" class="st0" width="8" height="79.42"/>
		</g>
		<g>
			<path class="st1" d="M105.37,35.02c2.22,3.86,3.51,6.53,3.51,6.53L91.03,59.54c0,0-2.65-1.3-6.48-3.54L105.37,35.02z"/>
			<path class="st1" d="M74.75,4.17c-3.83-2.24-6.48-3.54-6.48-3.54L50.42,18.62c0,0,1.29,2.67,3.51,6.53L74.75,4.17z"/>
			<path class="st1" d="M57.83,26.2c2.92,4.53,6.88,10.07,11.28,14.5c4.4,4.43,9.9,8.43,14.39,11.37l17.71-17.85
				c-2.92-4.53-6.88-10.07-11.28-14.5c-4.4-4.43-9.9-8.43-14.39-11.37L57.83,26.2z"/>
			<path class="st1" d="M69.21,45.39c-0.88-0.8-1.77-1.59-2.59-2.42c-0.82-0.83-1.6-1.73-2.4-2.61l-5.09,4.93
				c0.83,0.92,1.64,1.86,2.5,2.72c0.86,0.86,1.78,1.68,2.7,2.51L69.21,45.39z"/>
			<path class="st1" d="M61.88,53.08c-0.93-0.85-1.88-1.68-2.75-2.56c-0.87-0.88-1.7-1.83-2.54-2.77L8.51,94.28
				c1.13,1.29,2.25,2.59,3.43,3.78c1.18,1.19,2.47,2.32,3.75,3.46L61.88,53.08z"/>
			<path class="st1" d="M0.88,101.67c1.17,1.35,2.34,2.7,3.57,3.94c1.23,1.24,2.57,2.42,3.9,3.59l4.9-5.12
				c-1.3-1.15-2.61-2.3-3.81-3.51c-1.2-1.21-2.34-2.52-3.48-3.84L0.88,101.67z"/>
		</g>
	</g>
	<g>
		<path class="st0" d="M149.54,70c-2.81,0-5.15-0.27-7.02-0.8c-1.87-0.53-3.37-1.22-4.5-2.06c-1.13-0.84-1.93-1.78-2.41-2.83
			c-0.48-1.04-0.72-2.08-0.72-3.1c0-1.09,0.2-2,0.6-2.73c0.4-0.74,0.93-1.34,1.59-1.81c0.66-0.47,1.41-0.81,2.26-1.01
			c0.84-0.2,1.73-0.31,2.64-0.31c0,1.8,0.21,3.39,0.64,4.75c0.43,1.36,1.02,2.5,1.77,3.41c0.75,0.91,1.65,1.6,2.7,2.06
			c1.05,0.46,2.19,0.69,3.44,0.69c1.22,0,2.31-0.17,3.27-0.52c0.96-0.35,1.77-0.83,2.44-1.44c0.67-0.61,1.18-1.34,1.53-2.17
			c0.35-0.83,0.52-1.72,0.52-2.69c0-1.06-0.21-2.01-0.64-2.84c-0.43-0.83-1.07-1.6-1.94-2.3c-0.87-0.71-1.95-1.39-3.27-2.03
			c-1.31-0.65-2.85-1.34-4.6-2.08c-2.18-0.9-4.02-1.83-5.51-2.78c-1.5-0.96-2.7-1.98-3.62-3.09c-0.92-1.11-1.57-2.3-1.97-3.6
			c-0.4-1.29-0.6-2.7-0.6-4.24c0-1.92,0.39-3.67,1.16-5.22c0.77-1.56,1.84-2.89,3.21-3.99c1.36-1.11,2.98-1.96,4.86-2.55
			c1.87-0.6,3.91-0.89,6.11-0.89c2.3,0,4.28,0.19,5.95,0.57c1.67,0.38,3.05,0.9,4.14,1.55c1.09,0.66,1.9,1.43,2.43,2.32
			c0.53,0.89,0.79,1.85,0.79,2.87c0,0.74-0.16,1.42-0.47,2.06c-0.32,0.63-0.79,1.19-1.44,1.66c-0.64,0.47-1.45,0.84-2.41,1.11
			c-0.97,0.27-2.09,0.4-3.37,0.4c0-0.88-0.12-1.83-0.35-2.84c-0.23-1.02-0.62-1.96-1.15-2.83c-0.53-0.87-1.22-1.6-2.06-2.17
			c-0.85-0.57-1.87-0.86-3.07-0.86c-0.84,0-1.63,0.12-2.38,0.37c-0.75,0.25-1.41,0.61-1.97,1.11c-0.56,0.49-1,1.1-1.33,1.83
			c-0.33,0.73-0.49,1.56-0.49,2.51c0,0.88,0.14,1.71,0.43,2.49c0.28,0.78,0.81,1.54,1.57,2.29c0.76,0.75,1.81,1.49,3.15,2.24
			c1.33,0.75,3.06,1.55,5.18,2.41c2.14,0.88,3.96,1.78,5.47,2.7c1.51,0.92,2.74,1.91,3.71,2.97c0.97,1.05,1.67,2.21,2.11,3.47
			c0.44,1.26,0.66,2.66,0.66,4.2c0,2.03-0.4,3.89-1.19,5.58c-0.79,1.69-1.93,3.14-3.42,4.35c-1.49,1.21-3.27,2.15-5.36,2.83
			C154.49,69.66,152.14,70,149.54,70z"/>
		<path class="st0" d="M194.79,62.34c0,0.93,0.08,1.67,0.24,2.21c0.16,0.55,0.39,0.97,0.69,1.27c0.29,0.3,0.64,0.49,1.02,0.59
			c0.39,0.09,0.8,0.14,1.25,0.14h2.63V70h-21.59v-3.45h2.63c0.47,0,0.9-0.05,1.28-0.14c0.39-0.1,0.72-0.29,1.01-0.59
			c0.28-0.3,0.51-0.72,0.67-1.27c0.16-0.55,0.24-1.29,0.24-2.21V27.71h-5.01c-0.94,0-1.72,0.11-2.35,0.32
			c-0.63,0.21-1.15,0.51-1.54,0.9c-0.4,0.39-0.69,0.87-0.89,1.44c-0.19,0.57-0.33,1.21-0.41,1.93l-0.43,4.02h-4.21l0.34-12.56h38.96
			l0.31,12.56h-4.18l-0.46-4.02c-0.08-0.72-0.22-1.36-0.41-1.93c-0.19-0.57-0.49-1.05-0.89-1.44c-0.4-0.39-0.91-0.69-1.54-0.9
			c-0.63-0.21-1.42-0.32-2.35-0.32h-5.01V62.34z"/>
		<path class="st0" d="M255.76,46.86c0,3.46-0.46,6.62-1.39,9.46c-0.93,2.85-2.29,5.29-4.09,7.31c-1.8,2.03-4.01,3.6-6.63,4.7
			c-2.62,1.11-5.62,1.66-9.02,1.66c-3.56,0-6.67-0.55-9.33-1.66c-2.66-1.11-4.86-2.67-6.61-4.7c-1.75-2.03-3.06-4.47-3.94-7.33
			c-0.88-2.86-1.31-6.03-1.31-9.51c0-3.48,0.44-6.64,1.31-9.48c0.87-2.84,2.19-5.26,3.95-7.27c1.76-2.01,3.97-3.56,6.63-4.65
			c2.66-1.1,5.78-1.65,9.36-1.65c3.38,0,6.38,0.55,8.99,1.65c2.62,1.1,4.82,2.65,6.61,4.67c1.79,2.02,3.15,4.44,4.08,7.28
			C255.3,40.19,255.76,43.36,255.76,46.86z M223.94,46.86c0,3.01,0.19,5.7,0.58,8.05c0.39,2.35,1.01,4.35,1.86,5.98
			c0.86,1.63,1.96,2.87,3.31,3.73c1.35,0.86,3,1.29,4.93,1.29c1.95,0,3.61-0.43,4.96-1.29c1.35-0.86,2.45-2.1,3.28-3.73
			c0.83-1.63,1.44-3.62,1.82-5.98c0.38-2.35,0.56-5.04,0.56-8.05s-0.19-5.7-0.56-8.05c-0.38-2.35-0.98-4.35-1.82-5.98
			c-0.84-1.63-1.92-2.87-3.27-3.72c-1.34-0.85-2.98-1.27-4.92-1.27c-1.95,0-3.61,0.42-4.98,1.27c-1.36,0.85-2.47,2.09-3.33,3.72
			c-0.86,1.63-1.48,3.62-1.86,5.98C224.13,41.17,223.94,43.85,223.94,46.86z"/>
		<path class="st0" d="M283.78,64.99c1.53,0,2.89-0.18,4.08-0.54c1.19-0.36,2.25-0.82,3.19-1.4c0.94-0.57,1.76-1.22,2.46-1.94
			c0.7-0.72,1.32-1.42,1.85-2.12c0.32,0.25,0.58,0.63,0.78,1.14c0.19,0.51,0.29,1.03,0.29,1.57c0,0.88-0.23,1.81-0.7,2.78
			c-0.47,0.97-1.25,1.87-2.35,2.69c-1.1,0.82-2.56,1.49-4.37,2.03c-1.81,0.53-4.05,0.8-6.72,0.8c-3.62,0-6.79-0.55-9.5-1.66
			c-2.71-1.11-4.96-2.67-6.75-4.7c-1.79-2.03-3.14-4.47-4.03-7.31c-0.9-2.85-1.34-6-1.34-9.46c0-3.4,0.46-6.51,1.37-9.34
			s2.27-5.25,4.08-7.28c1.8-2.03,4.05-3.61,6.75-4.73c2.7-1.13,5.82-1.69,9.36-1.69c2.4,0,4.49,0.19,6.28,0.57
			c1.78,0.38,3.26,0.9,4.44,1.55c1.18,0.66,2.07,1.43,2.66,2.32c0.59,0.89,0.89,1.85,0.89,2.87c0,0.78-0.17,1.5-0.5,2.16
			c-0.34,0.67-0.84,1.25-1.5,1.74c-0.66,0.49-1.48,0.88-2.46,1.15c-0.98,0.28-2.1,0.42-3.36,0.42c0-1.04-0.11-2.08-0.34-3.12
			c-0.22-1.03-0.61-1.97-1.15-2.81c-0.54-0.84-1.25-1.52-2.12-2.04c-0.88-0.52-1.97-0.78-3.27-0.78c-1.98,0-3.64,0.42-5.01,1.26
			c-1.36,0.84-2.46,2.07-3.28,3.69c-0.82,1.62-1.42,3.61-1.79,5.98c-0.37,2.37-0.55,5.07-0.55,8.1s0.22,5.68,0.67,7.96
			c0.45,2.27,1.17,4.16,2.17,5.67c1,1.5,2.29,2.63,3.89,3.38C279.5,64.62,281.46,64.99,283.78,64.99z"/>
		<path class="st0" d="M326.13,35.52c0.67-0.74,1.24-1.41,1.69-2.01c0.46-0.6,0.82-1.16,1.1-1.68c0.27-0.51,0.47-1.01,0.6-1.47
			c0.12-0.46,0.18-0.92,0.18-1.36c0-0.72-0.27-1.21-0.79-1.49c-0.53-0.27-1.44-0.41-2.72-0.41v-3.35h16.95v3.35
			c-0.86,0-1.66,0.14-2.43,0.41c-0.76,0.27-1.51,0.66-2.24,1.17c-0.73,0.51-1.46,1.11-2.17,1.8c-0.71,0.7-1.44,1.47-2.17,2.31
			l-8.24,9.39l11.63,19.14c0.61,1.01,1.2,1.85,1.76,2.51c0.56,0.67,1.12,1.2,1.69,1.6c0.57,0.4,1.15,0.68,1.74,0.85
			c0.59,0.17,1.23,0.25,1.92,0.25h0.24V70h-3.36c-1.59,0-2.98-0.05-4.18-0.16c-1.2-0.11-2.26-0.26-3.16-0.47
			c-0.91-0.21-1.69-0.48-2.34-0.81c-0.65-0.33-1.22-0.71-1.71-1.16c-0.49-0.44-0.93-0.94-1.33-1.5c-0.4-0.56-0.79-1.18-1.18-1.85
			l-8.43-14.9l-2.78,2.25v10.94c0,0.93,0.09,1.67,0.26,2.21c0.17,0.55,0.4,0.97,0.69,1.27c0.28,0.3,0.63,0.49,1.04,0.59
			c0.41,0.09,0.83,0.14,1.28,0.14h2.63V70h-21.59v-3.45h2.63c0.45,0,0.86-0.04,1.25-0.13c0.39-0.08,0.73-0.26,1.02-0.52
			c0.29-0.26,0.52-0.66,0.69-1.17c0.16-0.51,0.24-1.2,0.24-2.04V31.12c0-0.87-0.08-1.56-0.24-2.07c-0.16-0.51-0.39-0.91-0.69-1.18
			c-0.3-0.27-0.64-0.46-1.02-0.55c-0.39-0.1-0.81-0.14-1.25-0.14h-2.63v-3.42h21.59v3.42h-2.63c-0.45,0-0.88,0.05-1.28,0.14
			c-0.41,0.09-0.75,0.29-1.04,0.58c-0.29,0.3-0.51,0.72-0.69,1.27c-0.17,0.55-0.26,1.29-0.26,2.21V46.5L326.13,35.52z"/>
	</g>
	<g>
		<path class="st1" d="M157.89,134.36c1.52,0,2.87-0.18,4.06-0.54c1.19-0.36,2.24-0.83,3.18-1.4c0.93-0.57,1.75-1.22,2.45-1.94
			c0.7-0.72,1.31-1.43,1.84-2.12c0.32,0.25,0.58,0.63,0.78,1.14c0.19,0.51,0.29,1.03,0.29,1.57c0,0.88-0.23,1.81-0.7,2.79
			c-0.47,0.97-1.25,1.87-2.34,2.69s-2.54,1.5-4.35,2.03c-1.8,0.53-4.03,0.8-6.69,0.8c-3.61,0-6.76-0.55-9.45-1.66
			c-2.7-1.11-4.93-2.68-6.72-4.71c-1.78-2.03-3.12-4.47-4.01-7.32c-0.89-2.85-1.34-6.01-1.34-9.48c0-3.4,0.46-6.52,1.37-9.35
			s2.26-5.26,4.06-7.29s4.03-3.61,6.72-4.74c2.68-1.13,5.79-1.69,9.32-1.69c2.39,0,4.47,0.19,6.25,0.57
			c1.77,0.38,3.25,0.9,4.42,1.56c1.17,0.66,2.06,1.43,2.64,2.32c0.59,0.9,0.88,1.85,0.88,2.88c0,0.78-0.17,1.5-0.5,2.17
			c-0.33,0.67-0.83,1.25-1.49,1.74c-0.66,0.49-1.47,0.88-2.45,1.15c-0.97,0.28-2.09,0.42-3.34,0.42c0-1.05-0.11-2.09-0.33-3.12
			c-0.22-1.03-0.6-1.97-1.14-2.81c-0.54-0.84-1.24-1.52-2.11-2.05c-0.87-0.52-1.96-0.78-3.25-0.78c-1.97,0-3.63,0.42-4.98,1.26
			c-1.36,0.84-2.45,2.07-3.27,3.69c-0.82,1.62-1.41,3.62-1.78,5.98c-0.36,2.37-0.55,5.07-0.55,8.11c0,3.04,0.22,5.69,0.67,7.97
			c0.44,2.28,1.16,4.17,2.16,5.68c0.99,1.5,2.28,2.64,3.88,3.38C153.63,133.98,155.58,134.36,157.89,134.36z"/>
		<path class="st1" d="M215.75,116.23c0,3.46-0.46,6.62-1.38,9.46c-0.92,2.85-2.28,5.29-4.07,7.31c-1.79,2.03-3.99,3.6-6.6,4.7
			c-2.6,1.11-5.6,1.66-8.98,1.66c-3.55,0-6.64-0.55-9.29-1.66c-2.64-1.11-4.84-2.67-6.58-4.7c-1.74-2.03-3.05-4.47-3.92-7.33
			c-0.87-2.86-1.31-6.03-1.31-9.51s0.44-6.64,1.31-9.48c0.87-2.84,2.18-5.26,3.94-7.27c1.75-2.01,3.95-3.56,6.6-4.65
			c2.64-1.1,5.75-1.65,9.32-1.65c3.36,0,6.35,0.55,8.95,1.65c2.6,1.1,4.8,2.65,6.58,4.67c1.78,2.02,3.13,4.44,4.06,7.28
			C215.29,109.56,215.75,112.73,215.75,116.23z M184.08,116.23c0,3.01,0.19,5.7,0.58,8.05c0.38,2.35,1,4.35,1.85,5.98
			c0.85,1.63,1.95,2.87,3.3,3.73c1.35,0.86,2.98,1.29,4.91,1.29c1.95,0,3.59-0.43,4.94-1.29c1.35-0.86,2.44-2.1,3.27-3.73
			c0.83-1.63,1.43-3.62,1.81-5.98c0.37-2.35,0.56-5.04,0.56-8.05s-0.19-5.7-0.56-8.05c-0.38-2.35-0.98-4.35-1.81-5.98
			c-0.83-1.63-1.91-2.87-3.25-3.72c-1.34-0.85-2.97-1.27-4.89-1.27c-1.95,0-3.6,0.42-4.95,1.27c-1.36,0.85-2.46,2.09-3.31,3.72
			c-0.85,1.63-1.47,3.62-1.85,5.98C184.28,110.54,184.08,113.22,184.08,116.23z"/>
		<path class="st1" d="M261.86,96.49h-2.67c-0.43,0-0.83,0.05-1.22,0.14c-0.39,0.09-0.73,0.28-1.02,0.58
			c-0.29,0.29-0.52,0.71-0.68,1.25c-0.16,0.54-0.24,1.27-0.24,2.18v24.93c0,2.14-0.3,4.07-0.9,5.77c-0.6,1.7-1.53,3.15-2.8,4.34
			c-1.27,1.19-2.88,2.1-4.85,2.73c-1.97,0.64-4.31,0.95-7.02,0.95c-2.72,0-5.14-0.27-7.28-0.79c-2.14-0.53-3.95-1.38-5.43-2.54
			c-1.48-1.17-2.61-2.67-3.39-4.51c-0.78-1.84-1.17-4.07-1.17-6.7v-24.43c0-0.85-0.09-1.53-0.26-2.05c-0.17-0.51-0.41-0.9-0.7-1.17
			c-0.29-0.27-0.63-0.45-1-0.54c-0.38-0.1-0.78-0.14-1.2-0.14h-2.67v-3.37h21.46v3.37h-2.61c-0.43,0-0.83,0.05-1.22,0.14
			c-0.39,0.09-0.73,0.28-1.02,0.58c-0.29,0.29-0.52,0.71-0.68,1.25c-0.16,0.54-0.24,1.27-0.24,2.18v24.68
			c0,1.79,0.22,3.29,0.65,4.51c0.44,1.21,1.06,2.19,1.87,2.93c0.81,0.74,1.78,1.27,2.92,1.59c1.13,0.32,2.41,0.49,3.83,0.49
			c1.38,0,2.62-0.18,3.74-0.55c1.11-0.36,2.06-0.93,2.84-1.7c0.78-0.77,1.38-1.75,1.81-2.93c0.43-1.19,0.64-2.59,0.64-4.21v-25.06
			c0-0.85-0.08-1.53-0.24-2.05c-0.16-0.51-0.39-0.9-0.68-1.17c-0.29-0.27-0.63-0.45-1.02-0.54c-0.39-0.1-0.79-0.14-1.22-0.14h-2.61
			v-3.37h16.29V96.49z"/>
		<path class="st1" d="M264.59,135.92h2.61c0.43,0,0.83-0.04,1.22-0.13c0.38-0.08,0.72-0.26,1.02-0.52c0.29-0.26,0.53-0.66,0.7-1.17
			c0.17-0.51,0.26-1.2,0.26-2.04v-31.57c0-0.87-0.09-1.56-0.26-2.07c-0.17-0.51-0.41-0.91-0.7-1.18c-0.29-0.27-0.63-0.46-1.02-0.55
			c-0.39-0.1-0.79-0.14-1.22-0.14h-2.61v-3.42h20.06c5.88,0,10.19,1.02,12.93,3.07c2.75,2.04,4.12,5.02,4.12,8.92
			c0,1.71-0.24,3.23-0.73,4.56c-0.49,1.33-1.13,2.49-1.93,3.48c-0.8,0.99-1.71,1.83-2.72,2.52c-1.01,0.68-2.05,1.25-3.1,1.69
			l7.42,13.29c0.53,0.93,1.04,1.73,1.53,2.39c0.5,0.67,0.99,1.21,1.49,1.64c0.5,0.43,1.01,0.75,1.53,0.95
			c0.53,0.2,1.08,0.3,1.67,0.3h0.24v3.45h-2.04c-1.87,0-3.49-0.07-4.88-0.22c-1.39-0.15-2.6-0.44-3.65-0.87
			c-1.04-0.43-1.95-1.03-2.7-1.79s-1.46-1.74-2.11-2.94l-7.39-14.27h-4.13v12.78c0,0.84,0.09,1.52,0.26,2.04
			c0.17,0.52,0.4,0.91,0.7,1.17c0.29,0.26,0.63,0.44,1.02,0.52c0.38,0.08,0.79,0.13,1.22,0.13h2.67v3.45h-21.49V135.92z
			 M280.21,115.52h3.5c1.44,0,2.64-0.2,3.6-0.6c0.96-0.4,1.73-1,2.31-1.79c0.58-0.79,0.99-1.78,1.25-2.97
			c0.25-1.19,0.38-2.58,0.38-4.16c0-1.64-0.14-3.04-0.43-4.18c-0.28-1.14-0.73-2.07-1.34-2.8c-0.61-0.73-1.4-1.26-2.37-1.58
			c-0.97-0.33-2.15-0.49-3.53-0.49h-3.37V115.52z"/>
		<path class="st1" d="M330.11,131.72c0,0.93,0.08,1.67,0.24,2.21c0.16,0.55,0.39,0.97,0.68,1.27c0.29,0.3,0.63,0.49,1.02,0.59
			c0.38,0.09,0.8,0.14,1.25,0.14h2.61v3.45h-21.49v-3.45h2.61c0.47,0,0.89-0.05,1.28-0.14c0.38-0.1,0.72-0.29,1-0.59
			c0.28-0.3,0.51-0.72,0.67-1.27c0.16-0.55,0.24-1.29,0.24-2.21V97.08h-4.98c-0.93,0-1.71,0.11-2.34,0.32
			c-0.63,0.21-1.14,0.51-1.53,0.9c-0.4,0.39-0.69,0.87-0.88,1.44c-0.19,0.57-0.33,1.21-0.41,1.93l-0.43,4.02h-4.19l0.33-12.56h38.78
			l0.3,12.56h-4.16l-0.46-4.02c-0.08-0.72-0.22-1.36-0.41-1.93c-0.19-0.57-0.49-1.05-0.88-1.44c-0.4-0.39-0.91-0.69-1.53-0.9
			c-0.63-0.21-1.41-0.32-2.34-0.32h-4.98V131.72z"/>
	</g>
</g>
</svg>
